<?xml version="1.0" encoding="UTF-8" standalone="no"?>
<svg
   id="vector"
   width="24"
   height="24"
   viewBox="0 0 24 24"
   version="1.1"
   sodipodi:docname="icon_app.svg"
   inkscape:version="1.2.2 (b0a84865, 2022-12-01)"
   xmlns:inkscape="http://www.inkscape.org/namespaces/inkscape"
   xmlns:sodipodi="http://sodipodi.sourceforge.net/DTD/sodipodi-0.dtd"
   xmlns="http://www.w3.org/2000/svg"
   xmlns:svg="http://www.w3.org/2000/svg">
  <defs
     id="defs28" />
  <sodipodi:namedview
     id="namedview26"
     pagecolor="#ffffff"
     bordercolor="#000000"
     borderopacity="0.25"
     inkscape:showpageshadow="2"
     inkscape:pageopacity="0.0"
     inkscape:pagecheckerboard="0"
     inkscape:deskcolor="#d1d1d1"
     showgrid="false"
     inkscape:zoom="19.213666"
     inkscape:cx="18.918826"
     inkscape:cy="14.182614"
     inkscape:window-width="1440"
     inkscape:window-height="847"
     inkscape:window-x="36"
     inkscape:window-y="25"
     inkscape:window-maximized="0"
     inkscape:current-layer="vector" />
  <g
     id="g13268"
     transform="matrix(0.5375804,0,0,0.47604487,5.4969887,6.1465124)">
    <path
       id="rect6982"
       style="fill:#000000;stroke-width:0.97301"
       d="m 4.3632812,8.6777344 c -0.4451105,0 -0.8046874,0.3576238 -0.8046874,0.8027344 V 20.958984 c -1e-7,0.445111 0.3595769,0.804688 0.8046874,0.804688 H 19.636719 c 0.44511,0 0.804687,-0.359577 0.804687,-0.804688 V 9.4804688 c 0,-0.4451106 -0.359577,-0.8027344 -0.804687,-0.8027344 z m 0.5625,1.5273436 H 19.074219 c 0.06041,0 0.109375,0.04897 0.109375,0.109375 v 9.921875 c 0,0.06041 -0.04897,0.109375 -0.109375,0.109375 H 4.9257812 c -0.060408,0 -0.109375,-0.04897 -0.109375,-0.109375 v -9.921875 c 0,-0.06041 0.048967,-0.109375 0.109375,-0.109375 z m 7.1249998,1.353516 c -1.908409,1.658049 -2.8652341,3.090952 -2.8652341,4.300781 0,1.814744 1.3614231,2.988281 2.8652341,2.988281 1.503813,0 2.865235,-1.173537 2.865235,-2.988281 0,-1.209829 -0.956826,-2.642732 -2.865235,-4.300781 z m -1.037109,3.027344 2.621094,1.185546 -2.621094,1.248047 z" />
    <path
       id="path8853"
       style="fill:#000000"
       d="M 11.847656,1.4003906 C 9.0834867,1.414707 6.3184343,3.2846286 6.3046875,7.0175781 L 6.3125,9.2539062 H 8.3144531 V 7.1328125 L 8.3085938,7.0136719 C 8.3166926,5.6494122 8.7567598,4.8686872 9.3847656,4.3027344 10.014983,3.7347873 10.92348,3.4071807 11.857422,3.4023438 c 0.933909,-0.00484 1.840333,0.3141247 2.464844,0.8671874 0.607164,0.5377023 1.036261,1.2686032 1.064453,2.5449219 h 0.0078 v 2.4394531 h 1.996094 V 6.9160156 c -0.0143,-3.6885201 -2.778787,-5.5299413 -5.542957,-5.515625 z" />
  </g>
</svg>
