<?xml version="1.0" encoding="UTF-8" standalone="no"?>
<svg
   id="vector"
   width="24"
   height="24"
   viewBox="0 0 24 24"
   version="1.1"
   sodipodi:docname="icon_tampon_stop.svg"
   inkscape:version="1.2.2 (b0a84865, 2022-12-01)"
   xmlns:inkscape="http://www.inkscape.org/namespaces/inkscape"
   xmlns:sodipodi="http://sodipodi.sourceforge.net/DTD/sodipodi-0.dtd"
   xmlns="http://www.w3.org/2000/svg"
   xmlns:svg="http://www.w3.org/2000/svg">
  <defs
     id="defs28" />
  <sodipodi:namedview
     id="namedview26"
     pagecolor="#ffffff"
     bordercolor="#000000"
     borderopacity="0.25"
     inkscape:showpageshadow="2"
     inkscape:pageopacity="0.0"
     inkscape:pagecheckerboard="0"
     inkscape:deskcolor="#d1d1d1"
     showgrid="false"
     inkscape:zoom="19.350593"
     inkscape:cx="6.7956574"
     inkscape:cy="10.774864"
     inkscape:window-width="1440"
     inkscape:window-height="847"
     inkscape:window-x="0"
     inkscape:window-y="25"
     inkscape:window-maximized="1"
     inkscape:current-layer="vector" />
  <path
     id="rect785"
     style="fill:#000000"
     d="M 4.5761719 3.2421875 C 4.3847166 3.2363854 4.1921644 3.3050086 4.0410156 3.4472656 C 3.738718 3.7317797 3.7232985 4.2035618 4.0078125 4.5058594 L 18.671875 20.085938 C 18.956389 20.388235 19.428171 20.401702 19.730469 20.117188 C 20.032766 19.832673 20.048186 19.360891 19.763672 19.058594 L 5.0996094 3.4785156 C 4.9573524 3.3273668 4.7676271 3.2479896 4.5761719 3.2421875 z M 13.953125 3.6464844 C 13.298668 3.6263205 12.640955 3.8890736 12.173828 4.421875 L 9.6386719 7.3144531 L 9.96875 7.6640625 L 12.550781 4.71875 C 13.211948 3.9646297 14.329493 3.8912435 15.083984 4.5527344 C 15.838477 5.2142251 15.913443 6.3314458 15.251953 7.0859375 L 12.441406 10.291016 L 12.769531 10.640625 L 15.59375 7.4199219 C 16.424197 6.4727192 16.330017 5.043338 15.382812 4.2128906 C 14.968412 3.8495699 14.462147 3.6621674 13.953125 3.6464844 z M 7.8105469 9.3984375 L 5.1894531 12.388672 L 6.6328125 13.652344 C 6.0864033 14.438543 4.9133364 14.98669 5.125 16.103516 C 5.167005 17.202334 5.458187 18.384128 6.4023438 19.058594 C 7.3325795 19.730388 8.4186918 20.355675 9.5917969 20.384766 C 11.248426 20.342336 12.569892 18.908859 12.814453 17.326172 C 12.840101 16.604464 13.057867 15.940982 13.40625 15.34375 L 12.996094 14.910156 C 12.525752 15.745381 12.235453 16.687992 12.005859 17.615234 C 11.644328 18.904865 10.279504 20.151102 8.875 19.646484 C 7.7408989 19.211174 6.3631197 18.650112 6.0664062 17.330078 C 5.6094233 16.110999 6.1484015 14.85827 6.9960938 13.970703 L 8.6113281 15.386719 L 10.943359 12.726562 L 10.613281 12.376953 L 8.5820312 14.691406 L 5.8828125 12.324219 L 8.140625 9.75 L 7.8105469 9.3984375 z M 18.117188 11.810547 C 17.040018 12.072327 15.947089 12.433417 14.966797 12.974609 L 15.474609 13.513672 C 15.956487 13.35532 16.466821 13.24132 16.908203 13 C 17.395497 12.855825 19.046704 12.251876 18.117188 11.810547 z " />
</svg>
