<?xml version="1.0" encoding="UTF-8" standalone="no"?>
<svg
   id="vector"
   width="24"
   height="24"
   viewBox="0 0 24 24"
   version="1.1"
   sodipodi:docname="icon_tampon_start.svg"
   inkscape:version="1.2.2 (b0a84865, 2022-12-01)"
   xmlns:inkscape="http://www.inkscape.org/namespaces/inkscape"
   xmlns:sodipodi="http://sodipodi.sourceforge.net/DTD/sodipodi-0.dtd"
   xmlns="http://www.w3.org/2000/svg"
   xmlns:svg="http://www.w3.org/2000/svg">
  <defs
     id="defs28" />
  <sodipodi:namedview
     id="namedview26"
     pagecolor="#ffffff"
     bordercolor="#000000"
     borderopacity="0.25"
     inkscape:showpageshadow="2"
     inkscape:pageopacity="0.0"
     inkscape:pagecheckerboard="0"
     inkscape:deskcolor="#d1d1d1"
     showgrid="false"
     inkscape:zoom="19.350593"
     inkscape:cx="4.3667912"
     inkscape:cy="9.3795575"
     inkscape:window-width="1440"
     inkscape:window-height="847"
     inkscape:window-x="0"
     inkscape:window-y="25"
     inkscape:window-maximized="1"
     inkscape:current-layer="vector" />
  <path
     id="rect785"
     style="fill:#000000"
     d="M 15.383539,4.2126023 C 14.436335,3.3821532 13.004306,3.4748241 12.173857,4.4220285 l -6.983866,7.9657485 1.4421764,1.26441 c -0.5464102,0.786201 -1.7184913,1.333629 -1.5068273,2.450457 0.042005,1.09882 0.3322803,2.281058 1.2764389,2.955524 0.9302377,0.671796 2.0170598,1.297669 3.1901671,1.32676 1.6566329,-0.04243 2.9772919,-1.475896 3.2218529,-3.058587 0.04258,-1.198171 0.608986,-2.23822 1.436704,-3.075592 0.663884,-0.800164 1.79214,-0.777096 2.656929,-1.249908 0.487294,-0.144175 2.139846,-0.749549 1.210328,-1.19088 -1.436229,0.34904 -2.900947,0.876283 -4.088548,1.768836 -1.143004,1.058127 -1.660239,2.566329 -2.024129,4.035947 -0.361533,1.289633 -1.725573,2.537138 -3.1300798,2.03252 C 7.7408999,19.211952 6.3635889,18.65077 6.066875,17.330734 5.6098911,16.111653 6.1486892,14.859077 6.9963831,13.971508 L 8.6103872,15.386565 15.594253,7.4208161 C 16.424702,6.4736116 16.330744,5.0430513 15.383539,4.2126023 Z m -0.29872,0.3407178 c 0.754493,0.6614921 0.827855,1.7784522 0.166363,2.5329455 L 8.5827744,14.692205 5.8819978,12.324334 12.550405,4.7183951 c 0.661167,-0.7541219 1.779921,-0.8265671 2.534414,-0.165075 z" />
</svg>
