<?xml version="1.0" encoding="UTF-8" standalone="no"?>
<svg
   id="vector"
   width="24"
   height="24"
   viewBox="0 0 24 24"
   version="1.1"
   sodipodi:docname="icon_pregnancy_stop.svg"
   inkscape:version="1.2.2 (b0a84865, 2022-12-01)"
   xmlns:inkscape="http://www.inkscape.org/namespaces/inkscape"
   xmlns:sodipodi="http://sodipodi.sourceforge.net/DTD/sodipodi-0.dtd"
   xmlns="http://www.w3.org/2000/svg"
   xmlns:svg="http://www.w3.org/2000/svg">
  <defs
     id="defs28" />
  <sodipodi:namedview
     id="namedview26"
     pagecolor="#ffffff"
     bordercolor="#000000"
     borderopacity="0.25"
     inkscape:showpageshadow="2"
     inkscape:pageopacity="0.0"
     inkscape:pagecheckerboard="0"
     inkscape:deskcolor="#d1d1d1"
     showgrid="false"
     inkscape:zoom="19.350593"
     inkscape:cx="5.0902833"
     inkscape:cy="12.17017"
     inkscape:window-width="1440"
     inkscape:window-height="847"
     inkscape:window-x="0"
     inkscape:window-y="25"
     inkscape:window-maximized="1"
     inkscape:current-layer="vector" />
  <path
     id="path4356"
     style="fill:#000000;fill-opacity:1;stroke-width:1.26861"
     d="M 15.898935,3.0666354 A 5.7266665,9.3476505 24.955756 0 0 6.8203855,9.2985481 5.7266665,9.3476505 24.955756 0 0 8.1632044,20.082942 5.7266665,9.3476505 24.955756 0 0 17.26186,14.006877 l 0.11195,-0.24519 A 5.7266665,9.3476505 24.955756 0 0 15.898935,3.0666354 Z m -0.202282,0.5133659 a 5.1931505,8.7572727 24.955756 0 1 1.223104,9.9445317 L 16.8144,13.755557 A 5.1931505,8.7572727 24.955756 0 1 8.4444883,19.520171 5.1931505,8.7572727 24.955756 0 1 7.3456567,9.4891349 5.1931505,8.7572727 24.955756 0 1 15.696653,3.5800013 Z m -0.295856,0.7283304 a 3.3061166,2.9912484 24.955756 0 0 -4.212158,1.3853627 3.3061166,2.9912484 24.955756 0 0 1.774833,4.0788825 3.3061166,2.9912484 24.955756 0 0 4.239122,-1.3275748 l 0.03449,-0.078738 A 3.3061166,2.9912484 24.955756 0 0 15.4008,4.3083321 Z m -0.131045,0.3741766 c -0.09623,0.2829975 -0.05324,0.6003184 0.0361,0.8806588 0.05373,0.1879887 0.12804,0.3732395 0.246462,0.5304679 0.08813,0.1507469 0.174501,0.3096207 0.320908,0.4121599 0.201484,0.1887638 0.421708,0.3650598 0.680727,0.4675866 0.135333,0.063083 0.270594,0.1247286 0.40633,0.1869389 a 2.7550969,2.5779836 24.955756 0 1 -0.183845,0.9829571 l -0.02954,0.068113 a 2.7550969,2.5779836 24.955756 0 1 -3.568608,1.1829087 2.7550969,2.5779836 24.955756 0 1 -1.442391,-3.4739348 2.7550969,2.5779836 24.955756 0 1 0.79943,-0.9679209 c 0.02937,0.033219 0.06508,0.060434 0.09932,0.082843 0.219128,0.1428398 0.482568,0.2186192 0.743707,0.2211507 0.229027,-0.024825 0.45837,-0.049554 0.686154,-0.085687 0.423878,-0.067682 0.863306,-0.1971212 1.183173,-0.4963597 a 2.7550969,2.5779836 24.955756 0 1 0.02207,0.00812 z m -1.964358,0.8695781 c -0.270927,-0.1116575 -0.16776,0.4414979 -0.09155,0.5670525 0.214295,0.3945734 0.801807,0.5706393 1.15665,0.301299 0.28756,-0.3073872 -0.231668,-0.2234778 -0.352035,-0.058267 -0.417836,0.097515 -0.915109,-0.4319987 -0.652739,-0.7777011 -0.0215,-0.013678 -0.04227,-0.02494 -0.06033,-0.032384 z m 1.730264,1.1240397 c -0.272902,-0.1153639 -0.212746,0.5199959 -0.143953,0.6611486 0.189892,0.4448476 0.787221,0.6171431 1.17988,0.2884131 0.325763,-0.3692924 -0.222834,-0.2468858 -0.362291,-0.050115 -0.443745,0.1334946 -0.916886,-0.453022 -0.614131,-0.8652927 -0.02125,-0.014716 -0.04131,-0.026463 -0.0595,-0.034154 z m -2.519881,0.1931291 c -0.459662,-0.1918907 -0.38195,0.8157464 -0.262813,1.0646923 0.337055,0.8021959 1.467194,1.299907 2.235852,0.8940042 C 15.132063,8.3315168 14.078046,8.3409947 13.800459,8.6174796 12.945462,8.682622 12.074097,7.5451852 12.675882,6.9696141 12.616275,6.921932 12.563329,6.8891059 12.515777,6.8692552 Z" />
</svg>
