<?xml version="1.0" encoding="UTF-8" standalone="no"?>
<svg
   id="vector"
   width="24"
   height="24"
   viewBox="0 0 24 24"
   version="1.1"
   sodipodi:docname="icon_pregnancy_start.svg"
   inkscape:version="1.2.2 (b0a84865, 2022-12-01)"
   xmlns:inkscape="http://www.inkscape.org/namespaces/inkscape"
   xmlns:sodipodi="http://sodipodi.sourceforge.net/DTD/sodipodi-0.dtd"
   xmlns="http://www.w3.org/2000/svg"
   xmlns:svg="http://www.w3.org/2000/svg">
  <defs
     id="defs28" />
  <sodipodi:namedview
     id="namedview26"
     pagecolor="#ffffff"
     bordercolor="#000000"
     borderopacity="0.25"
     inkscape:showpageshadow="2"
     inkscape:pageopacity="0.0"
     inkscape:pagecheckerboard="0"
     inkscape:deskcolor="#d1d1d1"
     showgrid="false"
     inkscape:zoom="14.981249"
     inkscape:cx="15.5194"
     inkscape:cy="21.86066"
     inkscape:window-width="1440"
     inkscape:window-height="847"
     inkscape:window-x="0"
     inkscape:window-y="25"
     inkscape:window-maximized="1"
     inkscape:current-layer="vector" />
  <path
     class="st0"
     d="m 12,2.5791536 c -4.8043697,0 -8.7079197,3.90355 -8.7079197,8.7079204 0,4.79754 3.90355,8.70792 8.7079197,8.70792 4.79754,0 8.70792,-3.90355 8.70792,-8.70792 C 20.70092,6.4827036 16.79754,2.5791536 12,2.5791536 Z m 0,16.4604204 c -4.2788897,0 -7.7593297,-3.48043 -7.7593297,-7.75933 0,-4.2788904 3.48044,-7.7593304 7.7593297,-7.7593304 2.10874,0 4.01957,0.84623 5.41857,2.21793 0.29344,0.85987 0.7302,2.49773 0.0751,3.26206 -0.32074,0.37534 -1.3171,0.0614 -2.16333,0.5596 -0.39581,0.23203 -0.64832,0.8939904 -1.13285,2.1974504 -0.48453,1.30346 -1.35123,1.33076 -1.35123,1.33076 0,0 0.0136,-1.16697 -0.47088,-1.30346 -0.48453,-0.13649 -0.47088,0.66879 -0.47088,0.66879 0,0 -0.3344,-0.0478 -0.5596,-0.12284 -0.22521,-0.0682 -0.39582,-0.20473 -0.36169,-0.40946 0.0409,-0.24568 0.69608,-0.35487 0.88034,-0.40264 0.40264,-0.10919 0.67562,-0.22521 0.93494,-0.56643 0.19791,-0.25932 0.0136,-1.0168304 0.0136,-1.0168304 0,0 0.5596,-1.4263 0.43676,-2.10874 -0.0682,-0.38899 -0.29345,-0.76433 -0.54595,-1.05778 -0.70291,-0.8121 -1.97907,-1.1192 -3.0095502,-0.97588 -1.8562395,0.26615 -3.1323995,2.20427 -2.5454995,4.01956 0.15696,0.4777104 0.53912,0.7370404 0.8394,1.1192004 0.14331,0.17744 0.28662,0.37534 0.29345,0.60737 0.007,0.23203 -0.12284,0.43676 -0.19109,0.64832 -0.21838,0.69609 -0.505,1.32393 -0.55277,2.06096 -0.0478,0.75751 0.10236,1.54914 0.47771,2.21111 0.56642,0.99636 1.5559595,1.63785 2.6956297,1.76069 0.42311,0.0478 0.92129,0.0205 1.33076,-0.10237 0.49135,-0.14331 1.05778,-0.55277 1.35805,-0.96906 0.21155,-0.30027 0.24568,-0.54595 0.36169,-0.85305 0.16379,-0.42994 0.49818,-0.84622 0.98954,-0.53913 0.36852,0.23203 0.59372,0.63467 0.92812,0.90765 0.2252,0.18426 0.47088,0.2252 0.77115,0.13649 0.30027,-0.0887 0.62102,-0.48454 0.75751,-0.73021 0.33439,-0.59373 -0.76433,-0.32075 -0.98271,-0.3617 -0.23886,-0.0478 -0.30028,-0.39581 -0.64832,-0.84622 -0.27298,-0.36169 -0.5869,-0.79845 -1.04413,-0.92129 -0.41629,-0.11602 -0.82575,0.10919 -1.22839,0.21155 -0.40947,0.10919 -0.78481,-0.0478 -0.78481,-0.0478 0,0 1.25569,-0.38899 1.91083,-1.13285 0.54595,-0.62101 0.76433,-2.25205 1.24204,-2.51137 0.95542,-0.5118304 2.13603,0.0614 3.01638,-0.40947 0.41629,-0.2183804 0.58007,-0.7779804 0.64832,-1.3034504 0.2798,0.79845 0.42994,1.6583204 0.42994,2.5454904 -0.0137,4.26525 -3.49409,7.74568 -7.76616,7.74568 z"
     id="path561"
     style="fill:#000000;stroke-width:0.0682439;fill-opacity:1" />
</svg>
