<?xml version="1.0" encoding="UTF-8" standalone="no"?>
<svg
   id="vector"
   width="24"
   height="24"
   viewBox="0 0 24 24"
   version="1.1"
   sodipodi:docname="icon_painkiller.svg"
   inkscape:version="1.2.2 (b0a84865, 2022-12-01)"
   xmlns:inkscape="http://www.inkscape.org/namespaces/inkscape"
   xmlns:sodipodi="http://sodipodi.sourceforge.net/DTD/sodipodi-0.dtd"
   xmlns="http://www.w3.org/2000/svg"
   xmlns:svg="http://www.w3.org/2000/svg">
  <defs
     id="defs28" />
  <sodipodi:namedview
     id="namedview26"
     pagecolor="#ffffff"
     bordercolor="#000000"
     borderopacity="0.25"
     inkscape:showpageshadow="2"
     inkscape:pageopacity="0.0"
     inkscape:pagecheckerboard="0"
     inkscape:deskcolor="#d1d1d1"
     showgrid="false"
     inkscape:zoom="20.029108"
     inkscape:cx="5.2922975"
     inkscape:cy="14.503891"
     inkscape:window-width="1440"
     inkscape:window-height="847"
     inkscape:window-x="0"
     inkscape:window-y="25"
     inkscape:window-maximized="1"
     inkscape:current-layer="vector" />
  <g
     id="g2210"
     transform="matrix(1.4222568,0,0,1.4492024,-3.3564861,-9.405058)">
    <path
       id="path2139"
       style="fill:#000000"
       d="m 7.5078125,13.671875 c -0.5922085,1.178989 -1.5480268,2.249862 -1.7226563,3.591797 -0.1856625,1.993621 1.6369199,3.896535 3.65625,3.652344 1.3437478,-0.103423 2.4622028,-1.053209 2.9958698,-2.256829 0.429762,-0.730146 0.859524,-1.460291 1.289286,-2.190437 -2.348632,-0.04361 -4.6233419,-1.2724 -5.992187,-3.173828 -0.075521,0.125651 -0.1510417,0.251302 -0.2265625,0.376953 z" />
    <path
       id="rect488"
       style="fill:#000000"
       d="m 15.040699,1.1300626 c -0.976801,0.5922977 -1.6255,1.6641278 -1.6255,2.8945392 l -9.64e-4,2.8629806 a 6.7362652,6.8010368 59.51809 0 0 6.464336,-0.2491177 6.7362652,6.8010368 59.51809 0 0 0.303761,-0.1923979 l 5.96e-4,-2.4208233 c 0,-1.8749126 -1.508631,-3.38418529 -3.383543,-3.38418529 -0.644502,0 -1.247028,0.17875313 -1.758686,0.48900439 z m 0.244812,0.4043578 c 0.440637,-0.2671861 0.956924,-0.4240714 1.513612,-0.4240714 1.621686,0 2.914514,1.2929457 2.914514,2.9146324 l -0.0018,2.1608768 c -0.02555,0.015888 -0.05235,0.032723 -0.07812,0.048249 -1.727683,1.0126756 -3.928794,1.1102958 -5.748745,0.3174402 l 0.0022,-2.5259908 a 0.47172653,0.47172653 0 0 1 0.0017,-9.908e-4 c 0,-1.0647534 0.556479,-1.980686 1.396664,-2.4901451 z"
       transform="rotate(30.48191)" />
    <path
       id="path2193"
       style="fill:#000000"
       sodipodi:type="inkscape:offset"
       inkscape:radius="0"
       inkscape:original="M 7.734375 13.294922 L 7.5078125 13.671875 C 6.915604 14.850864 5.9597858 15.921737 5.7851562 17.263672 C 5.5994937 19.257293 7.4220761 21.160207 9.4414062 20.916016 C 10.785154 20.812593 11.903833 19.863776 12.4375 18.660156 L 13.726562 16.46875 C 11.37793 16.42514 9.1032201 15.19635 7.734375 13.294922 z "
       d="m 7.734375,13.294922 -0.2265625,0.376953 c -0.5922085,1.178989 -1.5480267,2.249862 -1.7226563,3.591797 -0.1856625,1.993621 1.6369199,3.896535 3.65625,3.652344 1.3437478,-0.103423 2.4624268,-1.05224 2.9960938,-2.25586 L 13.726562,16.46875 C 11.37793,16.42514 9.1032201,15.19635 7.734375,13.294922 Z" />
  </g>
</svg>
